<svg xmlns="http://www.w3.org/2000/svg" viewBox="0 0 1500 1500" width="1500" height="1500"><g transform="translate(122.0 598.0) rotate(0.0 423.0 368.5) scale(0.9888503037266565 0.9892471386328524)"><svg width="855.539" height="745.011" viewBox="0 0 855.539 745.011"><g fill="#1e1e1e"><path d="M681.014 739.805c-22.56-8.399-608.262-535.883-625.427-556.79S5.104 97.853 2.584 80.949s52.642-67.276 69.05-75.047 91.873-.981 115.74 7.887 610.55 493.712 626.027 514.702 41.804 90.348 39.495 113.623-38.802 70.972-58.471 82.116c-19.668 11.144-90.851 23.974-113.411 15.575z"/><path d="M702.396 745.018c-8.493 0-16.547-.746-22.254-2.87-14.32-5.332-225.431-193.521-315.532-274.185C221.887 340.189 62.879 195.837 53.654 184.602 36.231 163.381 2.704 98.708.111 81.318c-2.879-19.31 55.112-70.409 70.452-77.675 17.803-8.433 94.696-.738 117.681 7.802 12.98 4.823 178.813 139.422 316.879 253.22 148.035 122.014 302.152 251.306 310.29 262.342 7.591 10.295 18.094 32.509 26.758 56.592 4.488 12.476 14.759 43.177 13.213 58.762-2.329 23.477-39.037 72.322-59.726 84.045-9.894 5.606-32.062 11.656-56.474 15.413-7.905 1.215-22.931 3.199-36.788 3.199zM100.318 4.997c-13.332 0-23.217 1.081-27.614 3.163C55.611 16.257 2.849 65.778 5.056 80.58 7.51 97.037 40.85 161.128 57.518 181.429c8.085 9.847 153.145 142.001 310.426 282.809 184.406 165.09 304.701 269.784 313.941 273.224 21.795 8.115 92.303-4.64 111.307-15.408 19.364-10.972 55.048-58.34 57.215-80.188 1.003-10.109-3.836-31.259-12.943-56.576-8.513-23.666-18.749-45.379-26.077-55.317-6.857-9.3-139.89-121.7-309.445-261.451-178.627-147.23-305.393-248.658-315.439-252.39-11.016-4.093-35.124-8.125-59.988-10.034-9.62-.739-18.486-1.101-26.197-1.101z"/></g></svg></g><g transform="translate(127.0 564.0) rotate(0.0 433.0 377.0) scale(0.9911267829695577 0.9909851891086259)"><svg width="873.753" height="760.859" viewBox="0 0 873.753 760.859"><path d="M695.544 755.594c-23.043-8.579-621.287-547.359-638.821-568.713S5.16 99.895 2.585 82.629s53.77-68.716 70.529-76.655 93.84-1.002 118.219 8.055 623.625 504.285 639.433 525.724c15.809 21.439 42.699 92.283 40.341 116.056s-39.633 72.491-59.723 83.874c-20.089 11.385-92.797 24.49-115.84 15.911z" fill="#ffd04d"/><path d="M717.382 760.866c-8.669 0-16.886-.761-22.709-2.929-14.62-5.443-230.245-197.657-322.272-280.046-145.779-130.509-308.19-277.95-317.609-289.423C37 166.798 2.761 100.756.113 82.998-2.826 63.293 56.382 11.133 72.044 3.715c18.177-8.609 96.689-.749 120.16 7.971 13.251 4.924 182.63 142.401 323.65 258.634C667.056 394.945 824.47 527.001 832.779 538.27c7.751 10.512 18.476 33.196 27.323 57.791 4.583 12.74 15.071 44.089 13.494 59.997-2.377 23.967-39.854 73.834-60.978 85.803-9.946 5.635-33.12 11.958-57.665 15.736-8.073 1.242-23.422 3.268-37.571 3.269zM102.42 4.998c-13.629 0-23.738 1.105-28.236 3.236C56.717 16.507 2.801 67.126 5.058 82.26c2.508 16.816 36.57 82.296 53.598 103.034 8.26 10.06 156.427 145.046 317.08 288.871 188.359 168.63 311.237 275.569 320.682 279.085 22.272 8.291 94.318-4.739 113.735-15.742 19.788-11.212 56.252-59.619 58.467-81.946 1.025-10.333-3.918-31.945-13.223-57.811-8.697-24.177-19.155-46.36-26.643-56.515-7.006-9.502-142.892-124.313-316.081-267.06C330.215 123.792 200.729 20.188 190.462 16.373c-11.256-4.182-35.886-8.302-61.287-10.252-9.824-.754-18.878-1.123-26.755-1.123z" fill="#ffd04d"/><g fill="#d3a32d"><path d="m531.026 584.26 40.676 10.02 161.495-14.792 43.156-28.216-36.131-15.564-181.88 21.899z"/><path d="M571.702 596.78c-.201 0-.402-.024-.598-.073l-40.676-10.02a2.5 2.5 0 0 1-1.148-4.217l27.316-26.653a2.503 2.503 0 0 1 1.447-.693l181.88-21.898c.438-.054.882.011 1.288.186l36.13 15.563a2.5 2.5 0 0 1 .378 4.389l-43.156 28.217a2.49 2.49 0 0 1-1.14.397L571.93 596.77c-.076.007-.152.01-.228.01zm-35.711-13.871 35.901 8.844 160.457-14.697 38.74-25.33-31.237-13.456-180.371 21.717zM400.013 451.048l42.85 14.017 169.375-30.109 31.29-28.339-49.012-13.412-170.912 34.224z"/><path d="M442.862 467.565a2.51 2.51 0 0 1-.777-.124l-42.849-14.017a2.498 2.498 0 0 1-.992-4.143l23.59-23.619c.349-.35.794-.588 1.278-.685l170.912-34.225a2.484 2.484 0 0 1 1.15.04l49.012 13.413a2.502 2.502 0 0 1 1.019 4.265l-31.29 28.339a2.499 2.499 0 0 1-1.241.608L443.3 467.526a2.485 2.485 0 0 1-.438.039zm-38.205-17.628 38.386 12.557 168.05-29.873 27.377-24.795-44.044-12.053-169.589 33.96zM245.409 319.748l42.849 14.017 169.375-30.109 31.409-19.75-36.719-18.605-171.206 28.402z"/><path d="M288.258 336.265a2.51 2.51 0 0 1-.777-.124l-42.849-14.018a2.5 2.5 0 0 1-.696-4.396l35.709-26.045a2.509 2.509 0 0 1 1.064-.446l171.206-28.401a2.505 2.505 0 0 1 1.539.236l36.719 18.604a2.5 2.5 0 0 1 .201 4.346l-31.409 19.75a2.479 2.479 0 0 1-.893.345l-169.375 30.109c-.147.028-.293.04-.439.04zm-37.431-17.375 37.611 12.304 168.277-29.914 27.258-17.14-32.049-16.238-169.812 28.17zM98.844 194.456l39.332 13.416 171.348-29.042 22.818-26.111-40.725-10.697-160.031 30.807z"/><path d="M138.176 210.371c-.273 0-.546-.045-.807-.134l-39.332-13.416a2.5 2.5 0 0 1-.57-4.452l32.741-21.627c.274-.181.582-.307.905-.369l160.032-30.807a2.483 2.483 0 0 1 1.108.037l40.725 10.698a2.5 2.5 0 0 1 1.247 4.063l-22.818 26.111a2.496 2.496 0 0 1-1.464.82l-171.348 29.041c-.14.024-.28.035-.419.035zm-33.703-16.637 33.91 11.566 169.845-28.786 19.577-22.402-36.273-9.528-158.984 30.605z"/></g></svg></g><g transform="translate(333.0 363.0) rotate(0.0 162.5 164.0) scale(0.9693043675363564 0.9686431317886232)"><svg width="335.292" height="338.618" viewBox="0 0 335.292 338.618"><path d="M7.359 69.5c10.574-15.372 313.5-73.71 322.285-66.358 13.533 11.328-20.1 223.612-34.11 234.872-2.805 2.254-28.867 2.424-47.911 5.3-8.069 1.216 35.17 92.04 25.853 92.8-10.543.866-73.832-88.778-85.246-87.928-57.321 4.272-146.71 10.431-172.948 13.1C-2.338 263.069 1.63 77.824 7.359 69.5z" fill="#AEF45D"/><path d="M273.372 338.615c-5.96 0-17.856-13.467-43.091-43.639-9.194-10.993-18.7-22.36-26.5-30.8-11.5-12.444-14.683-13.475-15.386-13.494-16.424 1.224-35.51 2.6-54.989 4.014-48.767 3.529-99.195 7.178-117.869 9.075-1.615.166-3.974-.372-6.041-3.861C1.036 245.627.038 184.225 0 158.488c-.049-34.272 1.562-84.979 5.3-90.409C6.367 66.526 8.869 62.89 44.468 53.3c20.2-5.444 48.144-12.012 80.809-18.994C187 21.109 257.763 8.121 297.374 2.715c30.665-4.185 32.595-2.566 33.874-1.494 1.971 1.649 4.21 5.808 4.033 23.482-.262 26.312-5.961 75.311-14.519 124.832-4.309 24.933-15.24 83.654-23.662 90.423-1.95 1.567-7.161 2.076-21.556 3.131-8.493.623-18.074 1.324-26.472 2.53-.1 5.161 7.723 25.941 13.515 41.33 11.8 31.353 16.684 45.551 13.906 49.939a3.614 3.614 0 0 1-2.813 1.714 3.46 3.46 0 0 1-.308.013zm-85.026-92.935c6.5 0 19.684 14.9 45.77 46.089 13.741 16.428 32.257 38.566 38.243 41.524.047-6.066-8.6-29.038-14.451-44.582-11.171-29.676-15.486-42.161-13.128-46.182a3.422 3.422 0 0 1 2.471-1.695c8.838-1.333 18.979-2.076 27.928-2.732 8.038-.588 17.137-1.255 18.857-2.1 9.791-8.431 35.637-150.256 36.246-211.352.153-15.391-1.59-18.79-2.118-19.463-6.626-1.9-69.527 7.242-161.036 25.564C63.81 51.439 13.005 66.045 9.436 70.887 5.045 79.2.938 229.014 13.115 256.027c1.118 2.482 1.919 2.765 1.927 2.766 18.733-1.905 69.2-5.557 118-9.087 19.473-1.409 38.556-2.79 55-4.016.101-.007.202-.01.304-.01z" fill="#AEF45D"/><g fill="#D4FF9C"><path d="M313.219 35.515c5.839 3.569 11.869 16.954 16.75 30.655 3.461-33.354 4.168-59.271-.325-63.032-4.922-4.12-102.205 12.387-188.654 30.4 67.81-1.693 163.858-3.138 172.229 1.977z"/><path d="M329.968 68.67a2.5 2.5 0 0 1-2.355-1.661c-7.831-21.985-13.2-27.832-15.7-29.362-2.779-1.7-24.989-5.256-170.862-1.607a2.5 2.5 0 0 1-.573-4.946c43.2-9 88.762-17.576 125.005-23.523 61.331-10.06 64.325-7.553 65.763-6.35 2.007 1.679 7.337 6.14 1.207 65.207a2.5 2.5 0 0 1-2.487 2.242zm-15.446-35.288c4.414 2.7 9.02 9.915 13.988 21.958 3.805-42.247.5-49.115-.341-50.15-7.429-2.178-80.611 9.51-159.245 25.21 90.318-1.89 139.258-.89 145.6 2.987z"/></g></svg></g><g transform="translate(826.0 474.0) rotate(0.0 235.0 422.0) scale(1.001613236638586 1.0001896094046265)"><svg width="469.243" height="843.84" viewBox="0 0 469.243 843.84"><path d="M295.949 841.34 2.5 768.516S151.338 141.664 158.488 129.34s67.85-78.394 72.778-85.053S243.177 5.77 250.668 2.638c7.491-3.132 202.913 47.987 206.201 53.452s-8.664 36.229-7.184 43.41 17.079 81.875 17.058 96.314c-.022 14.44-170.794 645.526-170.794 645.526z" fill="#3054e5"/><path d="M295.951 843.841c-.2 0-.402-.024-.604-.074L1.898 770.942a2.5 2.5 0 0 1-1.83-3.004c6.081-25.61 149.006-627.354 156.257-639.853 4.859-8.374 32.78-39.773 53.168-62.698 9.746-10.96 18.164-20.425 19.763-22.587 1.694-2.29 4.013-8.962 6.256-15.414 5.189-14.928 8.98-24.876 14.191-27.055 1.269-.531 3.391-1.418 36.438 6.131 18.665 4.264 43.465 10.393 69.833 17.258 26.065 6.787 50.585 13.489 69.042 18.871 32.32 9.426 33.249 10.969 33.995 12.209 2.212 3.679.206 12.029-3.251 25.348-1.962 7.561-4.187 16.131-3.627 18.845l.282 1.364c6.292 30.404 16.846 83.236 16.827 95.459-.021 14.602-163.904 620.395-170.88 646.176a2.5 2.5 0 0 1-2.411 1.849zM5.504 766.685l288.671 71.639c59.056-218.262 169.724-630.187 170.067-642.523.013-8.591-6.083-43.012-16.724-94.429l-.282-1.368c-.741-3.595.897-10.374 3.684-21.111 1.811-6.975 4.798-18.483 3.917-21.25-4.398-2.634-40.582-13.593-100.753-29.248-61.782-16.074-98.21-23.899-102.584-23.39-3.53 1.768-8.363 15.673-11.265 24.023-2.582 7.428-4.812 13.844-6.959 16.746-1.733 2.342-9.415 10.98-20.046 22.935-19.104 21.483-47.974 53.947-52.579 61.885-5.892 11.162-103.716 419.511-155.147 636.091z" fill="#3054e5"/><g fill="#f6f6f6"><path d="M296.974 241.448s74.154-12.495 77.942-12.725c2.397-.146 43.238 28.33 71.2 50.671 13.84-48.608 20.622-80.088 20.627-83.58.021-14.44-15.578-89.133-17.058-96.314L231.266 44.288c-4.927 6.659-65.628 72.729-72.778 85.053-1.598 2.754-10.49 36.854-19.153 71.819l96.424-9.607z"/><path d="M446.116 281.894c-.56 0-1.111-.188-1.561-.547-27.578-22.035-64.886-47.948-69.861-50.092-5.116.593-48.478 7.801-77.304 12.659a2.502 2.502 0 0 1-1.995-.528l-60.415-49.243-95.396 9.505a2.498 2.498 0 0 1-2.675-3.089c2.816-11.368 16.989-68.288 19.417-72.472 4.858-8.375 32.78-39.773 53.168-62.7 9.746-10.959 18.163-20.424 19.762-22.585a2.501 2.501 0 0 1 2.623-.937l218.419 55.212c.93.235 1.643.98 1.836 1.919l.282 1.363c6.292 30.404 16.846 83.236 16.827 95.459-.006 4.026-7.128 36.513-20.723 84.26a2.5 2.5 0 0 1-2.404 1.816zm-71.142-55.675c1.145 0 4.136.932 27.397 17.364 14.627 10.333 30.194 21.92 42.362 31.521 13.615-48.196 19.505-76.743 19.509-79.294.013-8.591-6.069-42.948-16.688-94.271L232.217 47.107c-2.865 3.473-9.832 11.307-18.987 21.602-19.104 21.483-47.975 53.948-52.58 61.886-1.144 2.17-7.686 26.082-18.035 67.725l92.896-9.256a2.51 2.51 0 0 1 1.828.55l60.337 49.18c11.474-1.932 73.422-12.344 77.088-12.567a3.36 3.36 0 0 1 .21-.008z"/></g></svg></g><g transform="translate(751.0 650.0) rotate(0.0 144.5 175.5) scale(1.0026401701365881 1.000567273183372)"><svg width="288.239" height="350.801" viewBox="0 0 288.239 350.801"><path d="m157.966 98.845-10.659-4.86s10.79-34.132 10.405-40.017c-.317-4.851-23.407-39.961-22.188-43.874s7.926-8.561 11.598-7.418 21.827 45.768 22.364 51.642c.413 4.511-11.52 44.527-11.52 44.527z" fill="#d3a32d"/><path d="M157.966 101.345a2.5 2.5 0 0 1-1.037-.225l-10.659-4.86a2.5 2.5 0 0 1-1.347-3.028c4.117-13.023 10.553-35.155 10.294-39.101-.268-1.922-5.839-11.624-9.907-18.708-10.194-17.749-13.028-23.325-12.173-26.073 1.565-5.026 9.603-10.662 14.729-9.062 1.287.401 3.683 1.147 13.918 25.464 4.677 11.111 9.861 24.719 10.191 28.337.425 4.631-8.781 35.973-11.613 45.468a2.501 2.501 0 0 1-2.396 1.788zm-7.612-8.718 6.033 2.75c5.468-18.513 10.764-38.214 10.608-40.84-.187-2.041-3.802-12.43-9.316-25.642-6.346-15.204-10.303-22.438-11.599-23.893-2.14-.235-7.015 2.857-8.086 5.597.405 2.753 7.154 14.504 11.65 22.334 7.217 12.565 10.396 18.336 10.562 20.872.361 5.499-7.12 30.069-9.852 38.822z" fill="#d3a32d"/><path d="m114.507 322.644 18.783 16.299 54.558 9.358s35.026-27.283 40.995-37.4 58.095-136.589 56.873-152.846-58.303-77.328-69.861-81.697c-11.557-4.368-60.859 10.232-60.859 10.232S108.6 61.109 96.474 61.353s-85.13 45.742-91.16 55.504-.855 142.653 1.547 155.057 31.935 50.82 31.935 50.82l61.839 10.607z" fill="#aef45d"/><path d="M187.849 350.801c-.141 0-.282-.012-.423-.036l-54.559-9.358a2.499 2.499 0 0 1-1.216-.576l-17.238-14.958-12.252 9.448a2.494 2.494 0 0 1-1.95.484l-61.839-10.607a2.5 2.5 0 0 1-1.559-.94c-1.221-1.587-29.921-39.033-32.407-51.869-2.331-12.035-8.028-145.822-1.219-156.845 3.675-5.95 26.059-21.03 44.111-32.137 9.289-5.715 40.283-24.375 49.126-24.553l.204-.002c12.092 0 50.902 20.819 58.66 25.048 8.375-2.442 50.026-14.201 61.453-9.879 6.756 2.553 25.131 20.58 39.791 37.067 9.249 10.403 30.853 35.786 31.679 46.78 1.307 17.386-51.438 144.514-57.213 154.304-6.141 10.408-40.167 36.976-41.612 38.102a2.505 2.505 0 0 1-1.537.527zm-53.447-14.204 52.779 9.053c10.246-8.036 34.947-28.286 39.51-36.02 2.908-4.93 17.366-38.93 30.957-73.759 16.492-42.262 26.054-71.282 25.576-77.629-.479-6.376-12.423-23.582-30.43-43.833-17.953-20.192-33.329-34.015-37.821-35.713-8.829-3.336-45.776 6.296-59.266 10.291a2.498 2.498 0 0 1-1.913-.206c-12.743-6.998-47.884-25.071-57.27-24.929-4.81.097-23.976 9.889-46.606 23.813-21.733 13.371-39.994 26.486-42.477 30.506-1.676 2.713-3.21 24.027-2.017 75.165.881 37.754 2.781 72.373 3.891 78.101 1.834 9.472 22.35 37.841 30.869 48.998l59.792 10.256 13.003-10.027a2.5 2.5 0 0 1 3.166.091z" fill="#aef45d"/><path d="M139.833 329.259c-3.658-2.696-17.373-19.013-22.012-19.313s-18.206 10.548-23.562 11.496c-5.357.948-45.593-3.129-50.632-6.134-2.638-1.574-13.882-10.887-23.998-19.404 8.915 13.495 19.167 26.832 19.167 26.832l61.839 10.607 13.872-10.697 18.783 16.299 54.558 9.358s8.227-6.41 17.384-14.165c-9.437 2.877-18.422 5.407-20.659 5.347-5.143-.139-41.082-7.531-44.74-10.226z" fill="#94d63e"/><path d="M187.848 350.801c-.141 0-.282-.012-.423-.036l-54.558-9.358a2.499 2.499 0 0 1-1.216-.576l-17.238-14.958-12.252 9.448a2.498 2.498 0 0 1-1.95.484l-61.839-10.607a2.5 2.5 0 0 1-1.559-.94c-.103-.134-10.409-13.563-19.271-26.977a2.5 2.5 0 0 1 3.696-3.29c17.907 15.077 22.516 18.482 23.669 19.17 4.16 2.481 43.826 6.724 48.916 5.819 2.017-.356 6.329-2.959 10.134-5.255 6.686-4.035 10.958-6.476 14.025-6.273 3.792.245 9.375 5.722 17.459 14.049 2.484 2.559 4.831 4.976 5.869 5.743 2.487 1.692 36.084 9.548 43.328 9.742.549.017 3.717-.316 19.863-5.239a2.5 2.5 0 0 1 2.345 4.298 626.213 626.213 0 0 1-17.464 14.229 2.488 2.488 0 0 1-1.534.527zm-53.446-14.204 52.775 9.053a633.604 633.604 0 0 0 7.142-5.717c-6.592 1.806-8.746 2.083-9.813 2.05-3.044-.082-14.324-2.229-23.393-4.209-13.145-2.87-20.803-5.058-22.763-6.501-1.368-1.009-3.63-3.339-6.494-6.289-3.552-3.658-11.868-12.224-14.21-12.544-1.68-.104-7.358 3.306-11.104 5.566-4.584 2.767-8.914 5.379-11.846 5.898-5.858 1.037-46.672-3.063-52.348-6.449-.599-.357-2.062-1.23-10.184-7.869a571.635 571.635 0 0 0 8.024 10.851l59.79 10.256 13.003-10.027a2.5 2.5 0 0 1 3.166.091z" fill="#94d63e"/><g fill="#d4ff9c"><path d="M100.829 91.435c3.866.663 19.743 12.716 19.091 16.521-.653 3.805-33.41 30.947-35.767 35.43-2.356 4.483-9.121 58.728-10.731 62.562-1.61 3.835-11.576 4.171-14.44 1.634s-1.76-62.927.628-70.233c2.169-6.638 37.352-46.577 41.219-45.914z"/><path d="M65.239 211.708c-3.024 0-6.126-.669-7.916-2.254-.951-.843-2.93-2.596-2.498-35.233.156-11.724.838-32.846 2.407-37.649 1.79-5.476 18.574-24.436 20.482-26.58 19.342-21.734 22.177-21.257 23.536-21.021 3.083.529 9.245 5.032 12.399 7.61 9.434 7.709 8.925 10.679 8.733 11.797-.432 2.519-4.905 6.92-20.066 20.749-6.344 5.787-15.032 13.711-15.952 15.422-1.157 2.365-4.175 22.604-6.172 35.996-2.529 16.962-3.716 24.583-4.467 26.37-.884 2.105-3.051 3.606-6.266 4.34-1.278.293-2.74.453-4.22.453zm-4.325-5.805c1.187.678 4.392 1.172 7.435.478 1.906-.435 2.644-1.106 2.767-1.4.621-1.625 2.486-14.135 4.132-25.172 3.219-21.589 5.276-34.892 6.692-37.585 1.229-2.338 6.969-7.633 17.008-16.79 6.724-6.133 16.746-15.274 18.417-17.878-1.231-3.117-12.945-12.332-16.537-13.544-5.874 3.058-36.913 38.213-38.841 44.115-2.302 7.039-3.11 61.312-1.073 67.776z"/></g></svg></g><g transform="translate(240.0 582.0) rotate(0.0 492.5 376.5) scale(1.000480433751436 1.0002165143317876)"><svg width="984.527" height="752.837" viewBox="0 0 984.527 752.837"><g fill="#1e1e1e"><path d="M981.028 277.267c-2.857-3.394-209.426 3.572-431.844 13.271C560.15 182.275 571.693 18.409 566.681 11.83c-7.414-9.732-74.264-12.644-82.238-4.918-5.615 5.441-24.592 181.433-32.544 288C224.1 305.463 8.213 317.71 4.333 323.531c-8.231 12.347 13.25 98.94 24.99 107.242.65.46 4.013.775 9.778.96 26.16 109.478 90.314 318.604 90.314 318.604h710.091s66.863-227.963 96.619-355.236c7.556-.681 12.017-1.254 12.917-1.699 14.163-6.999 38.174-108.783 31.986-116.135z"/><path d="M839.506 752.837H129.415a2.5 2.5 0 0 1-2.39-1.767c-.638-2.08-63.756-208.101-89.913-316.908-7.167-.293-8.412-.768-9.233-1.349-7.226-5.109-15.813-32.047-20.972-53.562-2.651-11.058-10.821-47.857-4.654-57.107 1.36-2.04 3.416-5.124 141.739-13.644 77.86-4.796 183.482-10.32 305.579-15.983 3.881-51.489 10.364-120.115 16.991-179.804C478.004 9.669 481.418 6.362 482.703 5.117 488.839-.828 517.155-.391 531.271.67c11.905.895 32.594 3.338 37.398 9.645 1.133 1.488 4.144 5.44-2.251 102.902-3.609 55-9.125 121.62-14.458 174.699 112.15-4.882 216.954-8.934 295.401-11.421 41.195-1.306 73.57-2.129 96.227-2.449 37.549-.529 38.267.323 39.351 1.612 2.808 3.335 1.781 16.75-3.052 39.872-4.242 20.292-17.853 74.24-29.739 80.115-.618.306-1.631.806-12.001 1.782-29.635 126.229-95.577 351.345-96.243 353.615a2.498 2.498 0 0 1-2.398 1.795zm-708.241-5h706.368c6.352-21.736 68.049-233.504 96.058-353.305a2.5 2.5 0 0 1 2.21-1.92c9.893-.892 11.78-1.366 12.123-1.49 3.171-1.572 9.474-12.645 17.384-38.89 9.831-32.619 15.706-66.771 13.881-72.879-14.984-2.25-197.624 3.551-429.996 13.684a2.498 2.498 0 0 1-2.596-2.749c11.948-117.97 21.615-267.625 17.911-277.048-2.225-2.618-13.62-6.072-33.711-7.583-22.788-1.714-41.286.13-44.597 2.946-5.14 9.321-23.556 174.58-31.908 286.496a2.501 2.501 0 0 1-2.377 2.312c-259.741 12.03-434.048 22.937-445.82 27.879-2.875 5.471-.628 26.922 5.575 52.797 6.045 25.216 14.081 46.757 18.812 50.508.492.122 2.33.439 8.599.641a2.501 2.501 0 0 1 2.352 1.917c24.57 102.827 83.447 296.118 89.732 316.684zM30.449 428.555c0 .001.001.001 0 0z"/></g></svg></g><g transform="translate(261.0 559.0) rotate(0.0 507.5 388.0) scale(0.995639784392488 0.9955163278789473)"><svg width="1019.445" height="779.495" viewBox="0 0 1019.445 779.495"><path d="M133.939 776.995h735.404s127.734-435.497 113.44-453.76-938.419 43.498-952.505 56.72 103.661 397.04 103.661 397.04z" fill="#ffa9d8"/><path d="M869.344 779.496H133.939a2.5 2.5 0 0 1-2.39-1.767c-.294-.96-29.761-97.097-57.128-193.613-55.767-196.678-48.82-203.199-45.854-205.983 1.616-1.517 5.4-5.069 138.425-16.35 79.638-6.753 185.004-14.48 296.69-21.756C660.877 327.179 912 313.776 970.751 318.275c11.117.852 13.013 2.156 14.001 3.419 2.654 3.392 9.706 12.401-50.916 235.924-29.809 109.911-61.775 218.992-62.094 220.081a2.499 2.499 0 0 1-2.398 1.797zm-733.555-5H867.47c4.272-14.616 33.715-115.619 61.358-217.512 17.462-64.369 30.8-116.487 39.641-154.908 14.832-64.457 13.388-75.357 12.417-77.177-2.967-1.687-24.34-4.822-154.583.278-82.987 3.25-196.875 9.348-320.687 17.17-250.017 15.797-461.613 33.437-473.609 39.461-.835 1.733-1.965 11.656 11.607 67.894 8.122 33.651 20.325 79.194 36.272 135.364 25.118 88.464 51.798 175.999 55.903 189.43z" fill="#ffa9d8"/><path d="M982.784 323.235c-14.294-18.263-938.419 43.498-952.505 56.72-4.19 3.934 3.288 40.671 15.863 90.342l917.905-38.789c14.311-58.66 23.079-102.724 18.737-108.273z" fill="#e075b5"/><path d="M46.14 472.798a2.499 2.499 0 0 1-2.422-1.886c-21.887-86.455-17.337-90.726-15.15-92.779 1.616-1.517 5.4-5.069 138.425-16.35 79.638-6.753 185.004-14.48 296.69-21.756 197.195-12.848 448.318-26.251 507.069-21.752 11.117.852 13.013 2.156 14.001 3.419 1.976 2.524 6.601 8.434-18.277 110.407a2.5 2.5 0 0 1-2.323 1.905L46.247 472.795a1.938 1.938 0 0 1-.107.003zm-14.134-90.989c-1.185 2.358-1.661 15.627 16.061 85.905l913.996-38.625c7.344-30.191 12.664-54.304 15.818-71.696 4.768-26.29 3.487-31.526 3.001-32.499-2.984-1.687-24.4-4.817-154.578.281-82.987 3.25-196.875 9.348-320.686 17.17-250.048 15.8-461.663 33.441-473.612 39.464zm949.005-56.834h.01z" fill="#e075b5"/><path d="M30.279 446.039c-12.158-8.598-34.405-98.278-25.88-111.065s1005.103-55.527 1011.512-47.913-18.458 113.027-33.126 120.276c-14.669 7.249-940.348 47.3-952.506 38.702z" fill="#ffa9d8"/><path d="M58.177 449.737c-27.007 0-28.443-1.02-29.342-1.656-7.463-5.278-16.346-33.153-21.684-55.42-2.744-11.443-11.2-49.523-4.833-59.073 1.107-1.661 2.485-3.729 64.236-8.495 36.474-2.815 88.233-6.102 153.841-9.769 139.342-7.787 333.597-16.826 506.958-23.59 83.108-3.242 153.618-5.646 203.905-6.951 84.163-2.185 85.328-.798 86.562.669 2.889 3.432 1.819 17.297-3.179 41.211-4.39 21.005-18.473 76.847-30.752 82.916-8.921 4.409-290.864 17.695-478.197 25.55-124.832 5.234-239.701 9.499-323.446 12.009-65.49 1.962-102.748 2.599-124.069 2.599zm-26.626-5.866c10.932 3.228 201.722-2.311 475.817-13.817 257.237-10.797 465.615-21.777 474.392-24.995 3.457-1.713 10.273-13.878 18.785-42.774 10.599-35.98 15.298-67.54 13.627-73.145-16.56-2.572-239.625 4.828-503.372 16.736C220.807 318.97 18.861 331.325 6.263 336.724c-3.007 5.648-.688 27.917 5.75 54.771 6.274 26.169 14.625 48.525 19.538 52.376z" fill="#ffa9d8"/><path d="M23.281 354.868c13.164-3.744 870.95-36.01 991.19-40.516 2.495-14.26 3.331-25.041 1.438-27.29-6.409-7.614-1002.987 35.126-1011.512 47.913-2.968 4.452-2.203 18.227.564 34.652 5.589-6.674 12.227-13.026 18.32-14.759z" fill="#ffd2ed"/><path d="M4.962 372.126a2.5 2.5 0 0 1-2.465-2.084C-.78 350.59-.84 338.325 2.318 333.588c1.108-1.662 2.487-3.73 64.303-8.5 36.511-2.817 88.321-6.106 153.99-9.775 139.36-7.786 333.577-16.822 506.861-23.582 83.079-3.241 153.561-5.644 203.826-6.948 84.125-2.182 85.291-.797 86.525.67.961 1.142 3.513 4.173-.888 29.33a2.5 2.5 0 0 1-2.369 2.067c-99.68 3.736-974.147 36.606-990.617 40.428-4.632 1.325-10.535 6.15-17.07 13.954a2.503 2.503 0 0 1-1.917.894zm1.306-35.404c-1.457 2.831-1.998 11.312.335 27.266 5.885-6.306 11.251-10.175 15.994-11.524l.684 2.405-.684-2.405c13.191-3.752 821.843-34.239 989.753-40.534 2.713-16.148 2.146-21.324 1.783-22.795-16.881-2.552-239.798 4.844-503.333 16.743-289.94 13.09-491.867 25.443-504.532 30.844z" fill="#ffd2ed"/><path d="M554.715 398.062c-9.922 9.369-81-1.493-89.259-10.125S493.364 15.072 501.623 7.07c8.259-8.002 77.491-4.985 85.17 5.093 7.678 10.078-22.156 376.53-32.078 385.899z" fill="#ffa9d8"/><path d="M535.403 404.176c-9.699 0-20.168-1.149-26.267-1.948-14.21-1.86-39.781-6.599-45.487-12.563-1.375-1.437-3.675-3.841.317-63.921 2.248-33.818 6.115-79.531 10.89-128.719 4.667-48.069 9.634-93.738 13.988-128.593C496.301 8.744 498.72 6.4 499.883 5.274c6.333-6.136 35.631-5.679 50.238-4.58 12.312.926 33.707 3.451 38.661 9.953 1.067 1.4 3.287 4.315.13 64.876-1.823 34.983-5.043 81.172-9.066 130.06-4.058 49.31-8.451 95.453-12.369 129.929-6.867 60.422-9.689 63.087-11.045 64.368-3.474 3.279-11.911 4.296-21.029 4.296zm-67.978-17.808c3.363 3.098 19.895 7.962 42.36 10.903 25.218 3.301 39.983 1.824 43.139-.959 4.105-6.197 13.31-86.344 21.918-190.907 8.45-102.642 12.684-184.901 9.88-191.828-2.354-2.813-14.003-6.318-34.978-7.896-23.647-1.779-42.854.149-46.271 3.083-3.599 6.415-13.928 88.79-23.587 188.191-9.993 102.864-15.207 182.196-12.461 189.413z" fill="#ffa9d8"/><g fill="#e075b5"><ellipse cx="516.536" cy="347.658" rx="21.954" ry="24.684" transform="matrix(.0662 -.9978 .9978 .0662 135.4527 840.0516)"/><path d="M516.958 372.127c-.677 0-1.357-.022-2.04-.068-7.191-.477-13.799-3.429-18.606-8.312-4.885-4.962-7.335-11.314-6.899-17.888.436-6.573 3.704-12.546 9.202-16.819 5.41-4.206 12.348-6.26 19.541-5.782 7.19.477 13.798 3.429 18.606 8.312 4.885 4.961 7.335 11.314 6.899 17.888s-3.704 12.547-9.202 16.82c-4.897 3.805-11.047 5.849-17.501 5.849zm-.843-43.937c-5.346 0-10.417 1.675-14.433 4.797-4.355 3.385-6.941 8.073-7.281 13.203-.34 5.129 1.604 10.119 5.473 14.049 3.947 4.009 9.407 6.435 15.375 6.831 5.965.395 11.7-1.288 16.142-4.74 4.355-3.385 6.941-8.074 7.281-13.203.34-5.129-1.604-10.119-5.473-14.049-3.947-4.009-9.408-6.435-15.375-6.831a25.805 25.805 0 0 0-1.709-.057zM192.099 511.314c4.477-5.519 53.375-4.74 59.278 0s43.663 199.905 40.448 208.839-49.649 13.186-56.998 8.934-47.205-212.253-42.728-217.773z"/><path d="M247.701 733.226c-6.498 0-11.781-.618-14.125-1.975-1.483-.858-3.965-2.294-14.001-47.228-5.588-25.022-12.144-57.538-17.985-89.21-14.901-80.797-12.47-83.793-11.432-85.073 3.506-4.322 20.976-4.848 31.063-4.772 4.422.032 26.734.394 31.721 4.398 1.106.888 2.777 2.229 10.136 34.772 4.181 18.49 9.294 43.189 14.397 69.548 3.231 16.692 19.222 100.312 16.703 107.314-.943 2.621-3.904 4.809-9.052 6.69-9.419 3.444-25.475 5.536-37.425 5.536zm-11.389-6.181c5.215 2.479 32.742 1.197 47.099-4.05 5.3-1.938 6.001-3.515 6.063-3.688 2.439-10.35-33.379-195.802-39.815-206.153-2.247-1.447-13.358-3.047-28.039-3.183-16.013-.148-25.326 1.456-27.344 2.745-.703 5.74 5.431 46.794 17.258 107.742 12.588 64.876 21.93 102.467 24.778 106.587zm164.126-.432c5.34 4.13 47.298.586 52.709-5.753s-.978-213.281-5.692-217.134-57.054-6.023-61.664 0 9.307 218.756 14.647 222.887z"/><path d="M412.954 730.881c-5.848 0-11.73-.5-14.046-2.291-1.225-.948-2.749-2.126-6.148-37.46-1.919-19.947-4.004-46.614-5.871-75.088-1.864-28.43-3.286-55.223-4.003-75.441-1.261-35.544.052-37.26.92-38.395 1.01-1.32 3.24-2.96 11.586-3.934 15.012-1.751 48.725-.505 53.646 3.518.973.795 1.813 1.482 3.05 15.268 2.004 22.333 4.096 70.635 5.088 117.461 1.768 83.402-1.062 86.716-2.127 87.963-4.133 4.841-20.985 6.975-28.039 7.667-1.967.195-7.993.732-14.056.732zm-10.693-6.076c2.161 1.005 11.257 1.653 24.321.364 13.72-1.353 22.617-3.909 24.538-5.796 1.642-4.351 2.336-42.311.499-107.263-1.715-60.639-4.391-101.122-6.068-106.618-2.444-1.078-13.469-2.67-28.976-2.968-18.119-.343-27.022 1.374-28.673 2.619-1.275 4.88-.341 44.58 3.944 110.081 4.262 65.144 8.493 104.551 10.415 109.581zm173.127-221.079c6.492-3.747 52.166-7.795 56.301 0S621.312 712.291 616.51 718.9s-49.182 14.19-54.159 5.757c-4.976-8.434 6.545-217.184 13.037-220.931z"/><path d="M576.395 730.89c-1.023 0-2.009-.022-2.951-.067-7.17-.341-11.503-1.943-13.245-4.895-3.629-6.148.11-81.202 1.342-104.059 2.604-48.302 6.775-102.91 10.223-116.024.658-2.503 1.301-3.665 2.374-4.283 6.361-3.67 40.391-6.857 53.521-3.084 3.235.93 5.276 2.264 6.238 4.078 3.153 5.943-2.229 85.224-3.953 109.381-1.226 17.171-7.537 103.1-11.412 108.434-2.625 3.611-11.595 6.212-18.658 7.757-8.087 1.768-16.62 2.762-23.479 2.762zm-11.859-7.455c.625.943 3.372 2.117 9.146 2.393 15.651.745 37.954-4.841 40.747-8.322 2.011-4.425 6.529-49.882 10.538-106.065 4.62-64.756 5.748-102.52 4.482-106.591-.135-.186-.779-.881-3.172-1.568-11.893-3.417-43.379-.249-49.248 2.41-2.25 4.98-6.369 43.312-10.062 108.582-3.707 65.54-4.018 105.077-2.431 109.161zm12.101-217.544.002-.001-.002.001zm169.704-2.165c6.891-3.747 68.762-6.526 73.048 0 4.287 6.526-36.359 218.526-42.691 223.743s-39.818 4.13-44.41-2.711c-4.591-6.842 7.162-217.285 14.053-221.032z"/><path d="M758.627 733.241c-4.761 0-9.495-.354-13.218-.898-8.124-1.188-13.237-3.271-15.197-6.192-.739-1.1-1.975-2.942-1.241-34.133.426-18.12 1.454-42.231 2.893-67.894 2.495-44.483 6.757-101.917 10.555-117.384.77-3.136 1.509-4.548 2.727-5.21 4.711-2.562 25.691-3.889 38.644-4.156 33.961-.7 36.766 3.575 37.688 4.979.817 1.243 2.051 3.122-3.592 38.743-3.192 20.155-7.954 46.954-13.405 75.461-5.428 28.383-10.897 55.094-15.398 75.214-7.882 35.227-9.705 36.729-10.794 37.626-3.431 2.827-11.586 3.844-19.662 3.844zm-24.179-9.763c.938 1.179 4.502 2.867 11.685 3.917 12.374 1.811 25.703.53 28.833-1.747 2.489-3.967 11.87-43.477 24.545-109.724 12.562-65.654 18.405-105.71 17.656-110.939-1.785-1.323-12.116-3.104-34.108-2.595-17.362.401-31.736 2.018-35.136 3.354-2.25 4.765-6.427 40.29-10.489 108.66-3.731 62.8-4.443 104.555-2.986 109.074zM537.511 403.533c-3.413 0-7.446-.128-12.221-.429-14.898-.937-32.416-3.357-44.627-6.167-14.71-3.384-17.181-6.093-17.66-8.517-.908-4.593-1.23-30.576-1.265-33.524a2.5 2.5 0 0 1 2.471-2.529c1.378-.034 2.512 1.091 2.529 2.471.128 11.149.533 28.711 1.131 32.393 2.869 3.262 31.325 9.559 60.628 11.047 17.148.872 23.349-.754 24.232-1.736 2.104-2.784 4.732-19.288 5.924-30.115a2.498 2.498 0 0 1 2.758-2.211 2.498 2.498 0 0 1 2.211 2.758c-.504 4.583-3.207 27.69-6.914 32.594-.811 1.076-2.997 3.965-19.197 3.965z"/></g></svg></g><g transform="translate(375.0 335.0) rotate(-14.254178607883185 129.5 114.5) scale(0.847457627118644 0.8423422263583229)"><svg width="305.62" height="271.861" viewBox="0 0 305.62 271.861"><g fill="#3054E5"><path d="M2.517 153.273c-.909-7.555 34.859-23.772 43.748-22.106 8.888 1.666 55.466 68.554 55.466 68.554S274.963 1.375 284.842 2.505c9.879 1.131 22.296 68.163 17.021 80.323S115.411 271.422 97.244 269.343 3.427 160.828 2.518 153.273z"/><path d="M97.794 271.884a6.88 6.88 0 0 1-.835-.058c-10.809-1.237-36.166-31.65-55.535-56.945C22.339 189.957.648 158.649.035 153.572c-.265-2.199.932-4.509 3.656-7.061 8.537-7.997 34.394-19.421 43.034-17.801 1.947.365 6.508 1.219 32.602 35.854 9.692 12.864 18.832 25.735 22.62 31.112 9.209-10.52 47.244-53.887 85.776-96.661C277.643-.8 282.514-.283 285.126.021c2.228.255 4.274 2.048 6.258 5.481 8.499 14.716 17.955 66.374 12.773 78.321-3.1 7.144-54.164 58.13-98.057 99.423-18.56 17.46-45.484 42.296-68.357 61.458-29.844 25-37.153 27.18-39.949 27.181zM5.003 152.965c.941 3.749 18.392 30.199 40.857 59.485 30.069 39.197 46.405 53.806 51.667 54.408.87.1 6.79-.677 37.005-25.988 18.032-15.106 41.596-36.292 68.143-61.266 50.988-47.968 94.699-92.709 96.895-97.771 4.036-9.304-3.522-55.958-11.721-72.347-1.583-3.165-2.685-4.123-3.11-4.397-11.699 5.252-114.32 119.786-181.125 196.276a2.5 2.5 0 0 1-3.935-.215c-22.428-32.208-48.715-66.272-53.884-67.528-5.624-1.045-28.382 7.853-37.748 15.71-2.765 2.319-3.021 3.474-3.044 3.634z"/></g></svg></g></svg>